<?xml version="1.0" encoding="UTF-8"?>
<svg xmlns="http://www.w3.org/2000/svg" viewBox="0 0 1280 720" width="1280" height="720" font-family="system-ui,Segoe UI,Arial,sans-serif">
<rect x="0" y="0" width="1280" height="720" rx="20" fill="#0E141D"/>
<rect x="1" y="1" width="1278" height="718" rx="19" fill="none" stroke="#24303F"/>
<circle cx="42" cy="40" r="7" fill="#ff5f57"/><circle cx="66" cy="40" r="7" fill="#febc2e"/><circle cx="90" cy="40" r="7" fill="#28c840"/>
<text x="126" y="46" font-family="ui-monospace,Menlo,Consolas,monospace" font-size="20" fill="#8592A6">Claude Code<tspan fill="#55637A">  ~/edge_subnode  </tspan><tspan fill="#35D0E6">feature/advantech_identify</tspan></text>
<circle cx="1150" cy="40" r="6" fill="#46E08A"/><text x="1166" y="46" font-family="ui-monospace,Menlo,Consolas,monospace" font-size="18" fill="#46E08A">live</text>
<line x1="24" y1="72" x2="1256" y2="72" stroke="#1c2733"/>
<text x="60" y="120" font-family="ui-monospace,Menlo,Consolas,monospace" font-size="20" letter-spacing="6" fill="#F6A544">SHIP</text>
<rect x="60" y="146" width="30" height="30" rx="7" fill="#0f2530" stroke="#35D0E6"/><text x="75" y="168" text-anchor="middle" font-size="18" font-weight="700" fill="#35D0E6">Y</text>
<text x="104" y="168" font-family="ui-monospace,Menlo,Consolas,monospace" font-size="19" letter-spacing="3" fill="#35D0E6">YOU</text>
<rect x="60" y="186" width="1160" height="74" rx="16" fill="#0f1c25" stroke="#2b4a57"/>
<text x="90" y="230" font-size="29" fill="#D5DEEC">yes, build for arm64 and push to the registry</text>
<circle cx="1184" cy="223" r="20" fill="#35D0E6"/><text x="1184" y="230" text-anchor="middle" font-size="24" font-weight="800" fill="#08131a">↑</text>
<rect x="60" y="298" width="30" height="30" rx="7" fill="#171433" stroke="#9C8CF0"/><text x="75" y="320" text-anchor="middle" font-size="18" font-weight="700" fill="#9C8CF0">C</text>
<text x="104" y="320" font-family="ui-monospace,Menlo,Consolas,monospace" font-size="19" letter-spacing="3" fill="#9C8CF0">CLAUDE</text>
<rect x="60" y="340" width="310" height="34" rx="17" fill="#0d1420" stroke="#2E3C4F"/>
<circle cx="78" cy="357" r="5" fill="#35D0E6"/>
<text x="92" y="364" font-family="ui-monospace,Menlo,Consolas,monospace" font-size="18" fill="#8592A6">Bash · docker buildx --push</text>
<text x="62" y="424" font-size="27" font-weight="700" fill="#46E08A">✓</text>
<text x="92" y="424" font-size="27" fill="#C9D4E4">Pushed amd64 + arm64 → harbor…/vision-object-detection:latest</text>
</svg>